<svg xmlns="http://www.w3.org/2000/svg" viewBox="0 0 100 100" width="100" height="100">
  <!-- Plate -->
  <circle cx="50" cy="50" r="40" fill="#4b2e5a" stroke="#99627a" stroke-width="4"/>

  <!-- Quasar Core -->
  <circle cx="50" cy="50" r="20" fill="#99627a"/>

  <!-- Inner Core (Bright Center) -->
  <circle cx="50" cy="50" r="10" fill="#ffffff" opacity="0.9"/>

  <!-- Radiating Beams -->
  <g stroke="#2f4f4f" stroke-width="3">
    <line x1="50" y1="15" x2="50" y2="35"/>
    <line x1="50" y1="65" x2="50" y2="85"/>
    <line x1="15" y1="50" x2="35" y2="50"/>
    <line x1="65" y1="50" x2="85" y2="50"/>
    
    <line x1="28" y1="28" x2="40" y2="40"/>
    <line x1="28" y1="72" x2="40" y2="60"/>
    <line x1="72" y1="28" x2="60" y2="40"/>
    <line x1="72" y1="72" x2="60" y2="60"/>
  </g>

  <!-- Energy Swirls -->
  <path d="M50,50
           m-25,-5
           a25,15 0 1,1 50,0
           a25,15 0 1,1 -50,0" fill="none" stroke="#99627a" stroke-width="2" opacity="0.6"/>

  <path d="M50,50
           m-20,-10
           a20,10 0 1,1 40,0
           a20,10 0 1,1 -40,0" fill="none" stroke="#4b2e5a" stroke-width="2" opacity="0.5"/>
</svg>
